<mxfile host="app.diagrams.net" modified="2023-03-19T22:21:25.650Z" agent="5.0 (Windows NT 10.0; Win64; x64) AppleWebKit/537.36 (KHTML, like Gecko) Chrome/110.0.0.0 Safari/537.36 OPR/96.0.0.0" etag="UaEFgpL7AegOaiTJuin0" version="21.0.8" type="github">
  <diagram name="PÃ¡gina-1" id="jZdB5S3X_HLvqlEqnEEI">
    <mxGraphModel dx="839" dy="464" grid="1" gridSize="10" guides="1" tooltips="1" connect="1" arrows="1" fold="1" page="1" pageScale="1" pageWidth="827" pageHeight="1169" math="0" shadow="0">
      <root>
        <mxCell id="0" />
        <mxCell id="1" parent="0" />
        <mxCell id="3SlA_AyJGMBYoSnjObg2-1" value="Actor" style="shape=umlActor;verticalLabelPosition=bottom;verticalAlign=top;html=1;" vertex="1" parent="1">
          <mxGeometry x="130" y="250" width="30" height="60" as="geometry" />
        </mxCell>
        <mxCell id="3SlA_AyJGMBYoSnjObg2-2" value="Actor" style="shape=umlActor;verticalLabelPosition=bottom;verticalAlign=top;html=1;" vertex="1" parent="1">
          <mxGeometry x="120" y="60" width="30" height="60" as="geometry" />
        </mxCell>
      </root>
    </mxGraphModel>
  </diagram>
</mxfile>
